# xmcd
#
# Track frame offsets: 
#        150
#        16646
#        32091
#        50571
#        62710
#        82038
#        96537
#        114793
#        140273
#        154099
#        172279
#        189263
#        207202
#        230853
#        243093
#
# Disc length: 3418 seconds
#
# Revision: 0
# Processed by: cddbd v1.5.2PL0 Copyright (c) Steve Scherf et al.
# Submitted via: ExactAudioCopy v1.0b2
#
DISCID=c60d580f
DTITLE=Doc Nice and Muddy Feat - Blue Sparkles
DYEAR=2012
DGENRE=Blues
TTITLE0=Just a little bit
TTITLE1=Give me back my wig
TTITLE2=Ride on Josephine
TTITLE3=Broken Mold
TTITLE4=Crazy Mama
TTITLE5=Morning Sun Misery
TTITLE6=Blues Suede Shoes
TTITLE7=Dangerous Mood
TTITLE8=Madison Blues
TTITLE9=Thrill is gone
TTITLE10=Speak of the devil
TTITLE11=Since I fell for you
TTITLE12=Baby what you want me to do|Bright lights big city
TTITLE13=Walking Blues
TTITLE14=You got to loose
EXTD=
EXTT0=
EXTT1=
EXTT2=
EXTT3=
EXTT4=
EXTT5=
EXTT6=
EXTT7=
EXTT8=
EXTT9=
EXTT10=
EXTT11=
EXTT12=
EXTT13=
EXTT14=
PLAYORDER=
